<?xml version="1.0" encoding="UTF-8" standalone="no"?>
<!-- Created with Inkscape (http://www.inkscape.org/) -->

<svg
   xmlns:dc="http://purl.org/dc/elements/1.1/"
   xmlns:cc="http://creativecommons.org/ns#"
   xmlns:rdf="http://www.w3.org/1999/02/22-rdf-syntax-ns#"
   xmlns:svg="http://www.w3.org/2000/svg"
   xmlns="http://www.w3.org/2000/svg"
   xmlns:sodipodi="http://sodipodi.sourceforge.net/DTD/sodipodi-0.dtd"
   xmlns:inkscape="http://www.inkscape.org/namespaces/inkscape"
   width="133.11858mm"
   height="52.360687mm"
   viewBox="0 0 471.67999 185.52999"
   id="svg2"
   version="1.1"
   inkscape:version="0.91 r13725"
   sodipodi:docname="radical.svg">
  <defs
     id="defs4">
    <marker
       inkscape:stockid="Arrow2Mend"
       orient="auto"
       refY="0"
       refX="0"
       id="marker4608"
       style="overflow:visible"
       inkscape:isstock="true">
      <path
         id="path4610"
         style="fill:#000000;fill-opacity:1;fill-rule:evenodd;stroke:#000000;stroke-width:0.625;stroke-linejoin:round;stroke-opacity:1"
         d="M 8.7185878,4.0337352 -2.2072895,0.01601326 8.7185884,-4.0017078 c -1.7454984,2.3720609 -1.7354408,5.6174519 -6e-7,8.035443 z"
         transform="scale(-0.6,-0.6)"
         inkscape:connector-curvature="0" />
    </marker>
    <marker
       inkscape:isstock="true"
       style="overflow:visible"
       id="marker4476"
       refX="0"
       refY="0"
       orient="auto"
       inkscape:stockid="Arrow2Mend">
      <path
         transform="scale(-0.6,-0.6)"
         d="M 8.7185878,4.0337352 -2.2072895,0.01601326 8.7185884,-4.0017078 c -1.7454984,2.3720609 -1.7354408,5.6174519 -6e-7,8.035443 z"
         style="fill:#000000;fill-opacity:1;fill-rule:evenodd;stroke:#000000;stroke-width:0.625;stroke-linejoin:round;stroke-opacity:1"
         id="path4478"
         inkscape:connector-curvature="0" />
    </marker>
    <marker
       inkscape:stockid="Arrow2Mend"
       orient="auto"
       refY="0"
       refX="0"
       id="marker4434"
       style="overflow:visible"
       inkscape:isstock="true">
      <path
         id="path4436"
         style="fill:#000000;fill-opacity:1;fill-rule:evenodd;stroke:#000000;stroke-width:0.625;stroke-linejoin:round;stroke-opacity:1"
         d="M 8.7185878,4.0337352 -2.2072895,0.01601326 8.7185884,-4.0017078 c -1.7454984,2.3720609 -1.7354408,5.6174519 -6e-7,8.035443 z"
         transform="scale(-0.6,-0.6)"
         inkscape:connector-curvature="0" />
    </marker>
    <clipPath
       id="clipPath4800"
       clipPathUnits="userSpaceOnUse">
      <path
         inkscape:connector-curvature="0"
         id="path4802"
         d="m 0,0 1024,0 0,768 L 0,768 0,0 Z" />
    </clipPath>
    <clipPath
       id="clipPath4810"
       clipPathUnits="userSpaceOnUse">
      <path
         inkscape:connector-curvature="0"
         id="path4812"
         d="m 330,580 279,0 0,-129 -279,0 0,129 z" />
    </clipPath>
    <clipPath
       id="clipPath4816"
       clipPathUnits="userSpaceOnUse">
      <path
         inkscape:connector-curvature="0"
         id="path4818"
         d="m 329,451 280,0 0,129 -280,0 0,-129 z" />
    </clipPath>
    <clipPath
       id="clipPath4854"
       clipPathUnits="userSpaceOnUse">
      <path
         inkscape:connector-curvature="0"
         id="path4856"
         d="m 0,0 1024,0 0,768 L 0,768 0,0 Z" />
    </clipPath>
  </defs>
  <sodipodi:namedview
     id="base"
     pagecolor="#ffffff"
     bordercolor="#666666"
     borderopacity="1.0"
     inkscape:pageopacity="0.0"
     inkscape:pageshadow="2"
     inkscape:zoom="1"
     inkscape:cx="231.98345"
     inkscape:cy="102.4842"
     inkscape:document-units="px"
     inkscape:current-layer="layer1"
     showgrid="false"
     inkscape:window-width="2560"
     inkscape:window-height="1310"
     inkscape:window-x="0"
     inkscape:window-y="0"
     inkscape:window-maximized="1"
     fit-margin-top="0"
     fit-margin-left="0"
     fit-margin-right="0"
     fit-margin-bottom="0" />
  <metadata
     id="metadata7">
    <rdf:RDF>
      <cc:Work
         rdf:about="">
        <dc:format>image/svg+xml</dc:format>
        <dc:type
           rdf:resource="http://purl.org/dc/dcmitype/StillImage" />
        <dc:title></dc:title>
      </cc:Work>
    </rdf:RDF>
  </metadata>
  <g
     inkscape:label="Capa 1"
     inkscape:groupmode="layer"
     id="layer1"
     transform="translate(-2.76955,-49.89629)">
    <g
       id="g4794"
       transform="matrix(1.25,0,0,-1.25,-316.21545,767.29629)" />
    <g
       id="g4806"
       transform="matrix(1.25,0,0,-1.25,-316.21545,767.29629)">
      <g
         id="g4808"
         clip-path="url(#clipPath4810)">
        <g
           id="g4814"
           clip-path="url(#clipPath4816)">
          <g
             id="g4820"
             transform="matrix(0.2364865,0,0,0.2371324,344.1351,473.7647)">
            <text
               transform="matrix(1,0,0,-1,252,0)"
               style="font-style:italic;font-variant:normal;font-size:384px;font-family:Times;-inkscape-font-specification:Times-Italic;writing-mode:lr-tb;fill:#000000;fill-opacity:1;fill-rule:nonzero;stroke:none"
               id="text4822">
              <tspan
                 x="0"
                 y="0"
                 id="tspan4824">a</tspan>
            </text>
          </g>
          <g
             id="g4826"
             transform="matrix(0.2364865,0,0,0.2371324,344.1351,508.6232)">
            <text
               transform="matrix(1,0,0,-1,26,0)"
               style="font-style:italic;font-variant:normal;font-size:222px;font-family:Times;-inkscape-font-specification:Times-Italic;writing-mode:lr-tb;fill:#000000;fill-opacity:1;fill-rule:nonzero;stroke:none"
               id="text4828">
              <tspan
                 x="0"
                 y="0"
                 id="tspan4830">n</tspan>
            </text>
          </g>
          <g
             id="g4832"
             transform="matrix(0.2364865,0,0,-0.2371324,344.1351,561.9779)">
            <path
               d="m 0.5,270 52.5,-27.5 83,120 94.5,-362 235.5,0"
               style="fill:none;stroke:#000000;stroke-width:1;stroke-linecap:butt;stroke-linejoin:miter;stroke-miterlimit:10;stroke-dasharray:none;stroke-opacity:1"
               id="path4834"
               inkscape:connector-curvature="0" />
          </g>
          <path
             d="m 344.1351,497.9522 12.5338,6.6397 19.6284,-28.693 22.2297,86.079 55.8108,0 0,-4.5055 -52.5,0 -23.4121,-90.8217 -4.4933,0 -21.9932,32.0129 -6.3851,-3.3199 -1.419,2.6085 z"
             style="fill:#000000;fill-opacity:1;fill-rule:nonzero;stroke:none"
             id="path4836"
             inkscape:connector-curvature="0" />
          <g
             id="g4838"
             transform="matrix(0.2364865,0,0,0.2371324,344.1351,473.7647)">
            <text
               transform="matrix(1,0,0,-1,561,0)"
               style="font-variant:normal;font-weight:normal;font-size:384px;font-family:Symbol;-inkscape-font-specification:Symbol;writing-mode:lr-tb;fill:#000000;fill-opacity:1;fill-rule:nonzero;stroke:none"
               id="text4840">
              <tspan
                 x="0"
                 y="0"
                 id="tspan4842">=</tspan>
            </text>
          </g>
          <g
             id="g4844"
             transform="matrix(0.2364865,0,0,0.2371324,344.1351,473.7647)">
            <text
               transform="matrix(1,0,0,-1,880,0)"
               style="font-style:italic;font-variant:normal;font-size:384px;font-family:Times;-inkscape-font-specification:Times-Italic;writing-mode:lr-tb;fill:#000000;fill-opacity:1;fill-rule:nonzero;stroke:none"
               id="text4846">
              <tspan
                 x="0"
                 y="0"
                 id="tspan4848">x</tspan>
            </text>
          </g>
        </g>
      </g>
    </g>
    <g
       id="g4850"
       transform="matrix(1.25,0,0,-1.25,-316.21545,767.29629)">
      <g
         id="g4852"
         clip-path="url(#clipPath4854)">
        <g
           id="g4858"
           transform="translate(254,548)">
          <text
             transform="scale(1,-1)"
             style="font-variant:normal;font-weight:300;font-size:36px;font-family:Helvetica;-inkscape-font-specification:Helvetica-Light;writing-mode:lr-tb;fill:#000000;fill-opacity:1;fill-rule:nonzero;stroke:none"
             id="text4860">
            <tspan
               x="0 7.9920001 28.007999 50.004002 70.019997"
               y="0"
               sodipodi:role="line"
               id="tspan4862">índex</tspan>
          </text>
        </g>
        <g
           id="g4864"
           transform="translate(516,541)">
          <text
             transform="scale(1,-1)"
             style="font-variant:normal;font-weight:300;font-size:36px;font-family:Helvetica;-inkscape-font-specification:Helvetica-Light;writing-mode:lr-tb;fill:#000000;fill-opacity:1;fill-rule:nonzero;stroke:none"
             id="text4866">
            <tspan
               x="0 11.34 31.356001 49.355999 69.372002 77.363998 87.372002 107.388"
               y="0"
               sodipodi:role="line"
               id="tspan4868">resultat</tspan>
          </text>
        </g>
        <g
           id="g4870"
           transform="translate(447,426)">
          <text
             transform="scale(1,-1)"
             style="font-variant:normal;font-weight:300;font-size:36px;font-family:Helvetica;-inkscape-font-specification:Helvetica-Light;writing-mode:lr-tb;fill:#000000;fill-opacity:1;fill-rule:nonzero;stroke:none"
             id="text4872">
            <tspan
               x="0 11.988 32.004002 54 61.992001 82.008003 102.024 122.04"
               y="0"
               sodipodi:role="line"
               id="tspan4874">radicand</tspan>
          </text>
        </g>
        <g
           id="g4876"
           transform="matrix(0.9036945,-0.4281778,-0.4281778,-0.9036945,302,543)">
          <path
             d="m 0,0 37.48694,0 1,0"
             style="fill:none;stroke:#000000;stroke-width:2;stroke-linecap:butt;stroke-linejoin:miter;stroke-miterlimit:4;stroke-dasharray:none;stroke-opacity:1"
             id="path4878"
             inkscape:connector-curvature="0" />
        </g>
        <path
           d="m 333.8215,522.6112 10.7307,0.2272 -6.6202,8.4483 -4.1105,-8.6755 z"
           style="fill:#000000;fill-opacity:1;fill-rule:nonzero;stroke:none"
           id="path4880"
           inkscape:connector-curvature="0" />
        <g
           id="g4882"
           transform="matrix(0.7071068,-0.7071068,-0.7071068,-0.7071068,521,538.7434)">
          <path
             d="m 0,0 29.54412,0 1,0"
             style="fill:none;stroke:#000000;stroke-width:2;stroke-linecap:butt;stroke-linejoin:miter;stroke-miterlimit:4;stroke-dasharray:none;stroke-opacity:1"
             id="path4884"
             inkscape:connector-curvature="0" />
        </g>
        <path
           d="m 538.4967,514.4585 10.1824,-3.3941 -3.3941,10.1823 -6.7883,-6.7882 z"
           style="fill:#000000;fill-opacity:1;fill-rule:nonzero;stroke:none"
           id="path4886"
           inkscape:connector-curvature="0" />
        <g
           id="g4888"
           transform="matrix(-0.7071068,0.7071068,0.7071068,0.7071068,445,439.7714)">
          <path
             d="m 0,0 25.34117,0 1,0"
             style="fill:none;stroke:#000000;stroke-width:2;stroke-linecap:butt;stroke-linejoin:miter;stroke-miterlimit:4;stroke-dasharray:none;stroke-opacity:1"
             id="path4890"
             inkscape:connector-curvature="0" />
        </g>
        <path
           d="m 430.4752,461.0845 -10.1824,3.3941 3.3942,-10.1824 6.7882,6.7883 z"
           style="fill:#000000;fill-opacity:1;fill-rule:nonzero;stroke:none"
           id="path4892"
           inkscape:connector-curvature="0" />
      </g>
    </g>
  </g>
</svg>
