<?xml version="1.0" encoding="UTF-8" standalone="no"?>
<!-- Created with Inkscape (http://www.inkscape.org/) -->

<svg
   xmlns:osb="http://www.openswatchbook.org/uri/2009/osb"
   xmlns:dc="http://purl.org/dc/elements/1.1/"
   xmlns:cc="http://creativecommons.org/ns#"
   xmlns:rdf="http://www.w3.org/1999/02/22-rdf-syntax-ns#"
   xmlns:svg="http://www.w3.org/2000/svg"
   xmlns="http://www.w3.org/2000/svg"
   xmlns:sodipodi="http://sodipodi.sourceforge.net/DTD/sodipodi-0.dtd"
   xmlns:inkscape="http://www.inkscape.org/namespaces/inkscape"
   width="129.93578mm"
   height="23.082809mm"
   viewBox="0 0 460.40236 81.789482"
   id="svg2"
   version="1.1"
   inkscape:version="0.91 r13725"
   sodipodi:docname="redacta.svg">
  <defs
     id="defs4">
    <linearGradient
       id="linearGradient5790"
       osb:paint="solid">
      <stop
         style="stop-color:#69951a;stop-opacity:1;"
         offset="0"
         id="stop5792" />
    </linearGradient>
    <linearGradient
       id="linearGradient5772"
       osb:paint="solid">
      <stop
         style="stop-color:#7e1a1a;stop-opacity:1;"
         offset="0"
         id="stop5774" />
    </linearGradient>
  </defs>
  <sodipodi:namedview
     id="base"
     pagecolor="#ffffff"
     bordercolor="#666666"
     borderopacity="1.0"
     inkscape:pageopacity="0.0"
     inkscape:pageshadow="2"
     inkscape:zoom="2"
     inkscape:cx="82.258582"
     inkscape:cy="179.54184"
     inkscape:document-units="px"
     inkscape:current-layer="layer1"
     showgrid="false"
     inkscape:window-width="2560"
     inkscape:window-height="1310"
     inkscape:window-x="0"
     inkscape:window-y="0"
     inkscape:window-maximized="1"
     fit-margin-top="0"
     fit-margin-left="0"
     fit-margin-right="0"
     fit-margin-bottom="0" />
  <metadata
     id="metadata7">
    <rdf:RDF>
      <cc:Work
         rdf:about="">
        <dc:format>image/svg+xml</dc:format>
        <dc:type
           rdf:resource="http://purl.org/dc/dcmitype/StillImage" />
        <dc:title></dc:title>
      </cc:Work>
    </rdf:RDF>
  </metadata>
  <g
     inkscape:groupmode="layer"
     id="layer2"
     inkscape:label="Capa 2"
     transform="translate(-34.628822,-127.37411)" />
  <g
     inkscape:label="Capa 1"
     inkscape:groupmode="layer"
     id="layer1"
     transform="translate(-34.628822,-127.37411)">
    <path
       style="fill:#000000;stroke-width:2;stroke-miterlimit:4;stroke-dasharray:none"
       d="m 486.56308,207.38962 c -0.22799,-0.0223 -1.45379,-0.12317 -2.724,-0.22436 -4.43679,-0.35339 -6.36704,-0.73948 -10.30381,-2.061 -4.36245,-1.4644 -4.91355,-1.58169 -8.15394,-1.73537 l -1.69924,-0.0805 0.98863,-0.98017 0.98864,-0.98015 1.16243,0.11113 c 2.18208,0.20861 4.31631,0.74064 8.72687,2.17547 1.07479,0.34965 3.33985,1.01609 5.03347,1.48097 3.09176,0.84866 7.52061,2.21303 7.52061,2.31683 0,0.0583 -0.83431,0.046 -1.53966,-0.0227 z m -143.88539,-1.3137 c 0.54668,-0.57019 1.95329,-2.10096 3.1258,-3.40173 2.68751,-2.98149 3.86681,-4.17734 5.217,-5.29026 1.3717,-1.13065 4.38295,-3.12344 6.50803,-4.3069 4.04073,-2.25028 6.92842,-4.18642 6.92842,-4.64536 0,-0.0649 -0.19985,-0.11188 -0.44413,-0.10446 l -0.44413,0.0135 0.006,-0.71061 c 0.01,-1.10442 0.78347,-2.84448 3.13224,-7.04686 1.58179,-2.83009 1.99345,-3.71912 2.92734,-6.32172 0.89782,-2.50207 3.2926,-9.6371 3.71227,-11.06039 0.25811,-0.87538 0.36072,-1.0504 0.97015,-1.65489 l 0.68152,-0.67597 0.32496,0.32497 0.32497,0.32497 -0.43244,1.27069 c -0.59855,1.75881 -1.61743,4.31524 -2.72096,6.82701 -0.5127,1.16695 -0.93217,2.16092 -0.93217,2.20884 0,0.0479 0.2728,0.15258 0.60621,0.23257 0.56403,0.1353 1.20738,0.11843 2.41387,-0.0633 0.4621,-0.0696 0.46638,-0.0671 0.1743,0.10275 -0.39151,0.22765 -1.48564,0.41811 -2.63161,0.45811 -0.50472,0.0176 -0.91776,0.0639 -0.91787,0.10287 -3.6e-4,0.12445 0.85432,0.44994 2.01319,0.7667 0.61882,0.16914 1.25837,0.35567 1.42122,0.41451 0.60493,0.21857 -0.7677,-0.0383 -1.70857,-0.31983 -0.51631,-0.15446 -1.14253,-0.28083 -1.3916,-0.28083 -0.77004,0 -1.0481,0.43644 -2.03739,3.19773 -0.29171,0.81424 -0.66603,1.83873 -0.83179,2.27663 -0.16578,0.4379 -0.4912,1.53045 -0.72315,2.42791 -0.56787,2.1971 -0.93063,3.25997 -1.42598,4.17807 -0.87527,1.62225 -1.04716,2.05981 -1.05375,2.6824 -0.0129,1.22489 1.12898,2.21285 2.54419,2.20114 2.62244,-0.0217 6.48377,-2.8471 10.71762,-7.84224 2.34923,-2.77163 2.64138,-3.06688 4.1833,-4.2274 2.58531,-1.94583 3.75869,-3.397 5.21608,-6.45091 1.60534,-3.36397 2.89554,-7.56662 2.67834,-8.7244 -0.0558,-0.29724 -0.3636,-0.70917 -1.13558,-1.51951 -1.60254,-1.6822 -2.54988,-3.05942 -2.75862,-4.01045 l -0.078,-0.35529 0.2683,0.35336 c 1.87832,2.47383 4.0642,4.11078 5.95317,4.45814 1.03244,0.18986 2.57596,0.0602 3.68351,-0.30944 1.03618,-0.34582 3.68977,-1.73161 5.19672,-2.71388 1.17287,-0.76452 2.36675,-1.90332 2.61284,-2.49228 0.17969,-0.43005 0.10779,-1.04854 -0.18503,-1.59145 -0.27329,-0.50671 -0.95026,-3.42737 -0.94089,-4.05931 0.002,-0.15262 0.26249,0.42493 0.57829,1.28345 1.43339,3.89671 1.85133,4.56859 3.23113,5.19455 0.61409,0.27859 0.95072,0.34728 1.90145,0.38797 0.99837,0.0427 1.28788,0.008 2.13184,-0.25675 0.5371,-0.16839 1.16802,-0.43731 1.40205,-0.59757 l 0.42548,-0.29139 0.9895,0.99465 c 0.54422,0.54707 0.96564,1.01362 0.93651,1.03678 -0.0291,0.0231 -0.90572,0.57596 -1.94794,1.22842 -1.04222,0.65247 -3.73365,2.34821 -5.98096,3.7683 -2.24729,1.42009 -4.59229,2.89287 -5.21112,3.27282 -0.61882,0.37995 -2.00451,1.24812 -3.0793,1.92925 -4.02368,2.54991 -6.27388,3.93098 -8.17199,5.01558 -5.22399,2.98504 -6.6947,4.15105 -9.29814,7.37181 -1.95897,2.42347 -3.63415,4.28178 -4.81094,5.3369 -2.35784,2.11407 -6.07303,4.10648 -8.51661,4.56735 -1.20015,0.22636 -2.05144,0.0838 -2.60888,-0.43693 -0.20479,-0.19131 -0.40671,-0.34613 -0.44867,-0.34403 -0.0419,0.002 -0.6892,0.39693 -1.43829,0.8774 l -1.36201,0.87357 -0.35487,-0.31482 -0.35487,-0.31484 0.26604,0.30372 c 0.14633,0.16704 0.26605,0.33474 0.26605,0.37265 0,0.0379 -0.41304,0.32493 -0.91786,0.63783 -0.50484,0.31288 -1.42418,0.89703 -2.04301,1.29811 -0.61882,0.40109 -1.81797,1.11888 -2.66478,1.59508 -3.13634,1.76377 -3.96755,2.46969 -3.96755,3.3695 0,0.79197 0.92326,2.61345 1.81743,3.58558 0.35615,0.38719 0.54833,0.50301 0.83282,0.50189 0.89754,-0.004 3.73822,-1.60493 8.57476,-4.83399 l 2.75693,-1.84065 0.58885,0.58 c 0.32386,0.31898 0.58884,0.61811 0.58884,0.6647 0,0.25957 -6.09506,4.09541 -8.11278,5.10567 -2.39801,1.20067 -3.6874,1.66712 -6.98764,2.52784 -4.1938,1.09376 -6.60588,1.59142 -8.80936,1.81754 -2.16444,0.22213 -2.09723,0.28667 -0.94878,-0.91114 z m 5.07997,-0.79804 c 0.61882,-0.0964 1.49819,-0.27738 1.95417,-0.40219 1.7104,-0.46817 4.25972,-1.21348 4.30475,-1.25852 0.0257,-0.0258 -0.22521,-0.35185 -0.5576,-0.72477 -0.63768,-0.71549 -1.37716,-2.02572 -1.84371,-3.26678 -0.15388,-0.40931 -0.33607,-0.74421 -0.40488,-0.74421 -0.30324,0 -2.75184,2.11872 -4.38868,3.79743 -0.98342,1.00858 -1.78805,1.86998 -1.78805,1.91419 0,0.0442 0.17034,0.25616 0.37854,0.47095 0.44332,0.45741 0.65707,0.4769 2.34546,0.2139 z m 16.66206,-17.7958 c 1.09368,-1.16114 1.7569,-2.2926 2.3777,-4.05639 0.39534,-1.12323 0.90732,-3.2252 0.83698,-3.43624 -0.0715,-0.21443 -1.07202,1.77846 -1.87382,3.73233 -0.40098,0.97708 -0.99156,2.26605 -1.31243,2.86434 -0.32086,0.59832 -0.58338,1.11794 -0.58338,1.15475 0,0.16663 0.27507,0.0383 0.55495,-0.25879 z m 26.50737,-15.58362 c 2.00809,-1.2648 6.0593,-3.83408 14.74512,-9.3513 1.53077,-0.97235 3.07064,-1.95433 3.42194,-2.18217 l 0.63873,-0.41428 -0.63873,-0.22054 c -0.95278,-0.32899 -1.06292,-0.30194 -1.67977,0.41256 -1.15887,1.34231 -3.25908,2.64764 -5.05834,3.14389 -1.02508,0.28272 -3.21219,0.65932 -4.49835,0.77457 -1.38758,0.12433 -1.57452,0.2438 -2.12454,1.35763 -0.26034,0.52719 -0.75498,1.37017 -1.0992,1.87327 -0.76405,1.11676 -3.01299,3.38774 -4.29904,4.34119 -1.02448,0.75953 -1.95416,1.59547 -1.95416,1.75711 0,0.12103 -0.20769,0.24271 2.54634,-1.49193 z m 1.10487,-2.72638 c 1.06868,-0.89822 2.04756,-2.02733 2.89033,-3.33393 0.54117,-0.83902 1.41287,-2.5052 1.56221,-2.98605 l 0.0814,-0.26205 -0.62836,0.19947 c -0.75142,0.23853 -3.26208,0.28326 -3.84374,0.0685 l -0.37297,-0.13771 -0.25437,1.02597 c -0.31988,1.29021 -1.71244,6.18521 -1.95597,6.87542 -0.10024,0.28413 -0.18226,0.56546 -0.18226,0.62518 0,0.11655 1.10986,-0.73513 2.70375,-2.07478 z m 8.17269,-6.17903 c 2.58792,-0.49269 5.34058,-1.80162 7.17538,-3.41198 l 0.58268,-0.51141 -1.14283,-0.84776 c -0.62855,-0.46626 -1.26384,-1.03455 -1.41173,-1.26285 -0.1479,-0.22831 -0.30587,-0.41576 -0.35107,-0.41656 -0.0452,-6.9e-4 -0.63149,0.51817 -1.3029,1.15328 -2.46984,2.33626 -3.06564,2.78416 -5.16834,3.88523 -1.02866,0.53867 -1.91467,1.28405 -1.91467,1.6108 0,0.18064 2.1868,0.0576 3.53348,-0.19875 z m 11.03398,-3.86916 c 0.91051,-0.5121 2.0134,-1.37929 2.0134,-1.58309 0,-0.2653 -0.38061,-0.20877 -2.04416,0.30362 -0.84704,0.2609 -1.90909,0.50867 -2.36011,0.55059 l -0.82005,0.0762 0.53639,0.50669 c 0.29501,0.27867 0.65772,0.53221 0.80603,0.5634 0.50872,0.10699 1.21772,-0.0514 1.8685,-0.41741 z m 49.92022,44.0598 -1.06592,-0.10711 -1.18434,-1.1904 c -1.04575,-1.05111 -1.14277,-1.18242 -0.82905,-1.12212 0.71454,0.13733 5.58126,0.54526 6.50513,0.54526 l 0.95102,0 -1.00146,1.00669 -1.00146,1.0067 -0.65401,-0.016 c -0.3597,-0.009 -1.13366,-0.0642 -1.71991,-0.12306 z m -1.52837,-0.18527 c -0.0481,-0.048 -3.74769,-0.1238 -8.22135,-0.16828 -5.97632,-0.0594 -8.52662,-0.12723 -9.61435,-0.25564 -3.55475,-0.41967 -7.22742,-1.2556 -12.49485,-2.84393 -1.62849,-0.49104 -3.33394,-0.98422 -3.78992,-1.09593 -0.45596,-0.11171 -0.8527,-0.22326 -0.88162,-0.24789 -0.0971,-0.0827 1.46478,-1.57794 1.64822,-1.57794 0.17045,0 2.85768,0.79547 6.33948,1.87662 5.76224,1.78924 9.1626,2.17185 17.04768,1.91822 3.01096,-0.0968 4.6564,-0.0979 6.04017,-0.004 l 1.90187,0.1292 1.18362,1.17846 c 0.651,0.64815 1.1262,1.17845 1.05604,1.17845 -0.0702,0 -0.16692,-0.0393 -0.21499,-0.0874 z m -85.24898,-1.56247 c -2.26528,-0.72429 -3.76595,-2.71828 -3.76595,-5.00394 0,-0.47549 -0.0459,-0.68729 -0.14805,-0.68321 -0.0814,0.004 -0.73429,0.39921 -1.45083,0.87991 l -1.30277,0.87402 -0.61631,-0.604 c -0.33898,-0.33219 -0.58844,-0.64908 -0.55438,-0.7042 0.034,-0.0551 0.73777,-0.5443 1.56379,-1.08708 1.8785,-1.23437 2.47159,-1.70577 3.98673,-3.16892 1.58873,-1.53419 1.89297,-1.75784 4.77793,-3.51219 1.65044,-1.00363 3.20179,-1.83069 4.75832,-2.53679 3.60214,-1.63407 4.46758,-2.11342 7.99434,-4.42789 2.57695,-1.69117 14.03846,-8.98594 19.89701,-12.66361 0.84681,-0.53158 2.36574,-1.48562 3.37539,-2.12007 l 1.83574,-1.15355 -3.02009,3.03096 c -2.85845,2.86873 -3.10249,3.08269 -4.55973,3.99783 -1.60117,1.00549 -4.83436,3.02738 -5.17057,3.23343 -0.1063,0.0652 -1.14487,0.72534 -2.30794,1.46709 -1.16308,0.74177 -2.75425,1.75081 -3.53592,2.24232 -0.78166,0.49151 -1.49635,0.96095 -1.5882,1.04321 -0.17653,0.15809 1.16241,-0.24947 3.42394,-1.04223 2.25105,-0.7891 2.7164,-0.96441 4.97426,-1.87391 1.76028,-0.70907 3.80786,-1.37757 4.91504,-1.60468 1.15947,-0.23782 2.15635,-0.70782 2.36325,-1.11418 0.30312,-0.59538 1.941,-4.81068 2.02135,-5.20221 0.0654,-0.31883 0.0495,-0.38032 -0.0787,-0.30381 -0.0884,0.0528 -0.58707,0.368 -1.10818,0.70053 -0.52111,0.33253 -1.16066,0.73 -1.42123,0.88326 -0.29995,0.17645 0.62492,-0.82649 2.52147,-2.73428 l 2.99518,-3.01293 1.971,-1.238 c 1.08404,-0.68089 2.02833,-1.25274 2.09842,-1.27076 0.0701,-0.018 0.42014,0.26478 0.7779,0.62845 0.52316,0.53181 0.6157,0.68144 0.47281,0.76453 -0.0977,0.0568 -1.24356,0.78762 -2.54634,1.62399 -2.61968,1.68181 -2.90257,1.96668 -3.35607,3.37953 -0.13105,0.40829 -0.46345,1.44944 -0.73866,2.31365 -0.27522,0.86422 -0.5196,1.55209 -0.54308,1.52862 -0.0486,-0.0486 0.32658,-2.28377 0.61629,-3.67166 0.10643,-0.50988 0.16114,-0.95943 0.12156,-0.999 -0.0396,-0.0396 -0.28787,0.13777 -0.55177,0.39409 -0.5541,0.53819 -1.18042,1.78468 -1.45411,2.89395 -0.46442,1.88232 -0.7859,3.35547 -0.74187,3.39951 0.0528,0.0528 2.97512,-1.04003 5.27637,-1.973 0.8091,-0.32803 1.49152,-0.57598 1.51648,-0.55101 0.14233,0.14232 -5.17007,2.98125 -7.07357,3.78008 -0.55368,0.23235 -1.91273,0.80602 -3.02008,1.2748 -2.75062,1.16442 -4.45762,1.82155 -6.27705,2.41641 -1.47658,0.48277 -2.07986,0.64677 -3.90833,1.06241 -2.72677,0.61984 -7.32215,1.77422 -8.31426,2.08858 -4.20381,1.332 -8.74959,3.67493 -13.0632,6.73285 -2.65004,1.87862 -3.83761,3.29312 -4.14862,4.94138 -0.13685,0.72531 -0.10143,1.88044 0.0715,2.33103 0.0614,0.16001 0.13771,0.11224 0.40078,-0.2509 0.96474,-1.33181 2.9003,-2.15457 6.33323,-2.69212 1.72843,-0.27065 3.09063,-0.19994 3.99027,0.20717 0.69518,0.31455 1.64328,1.08041 1.64328,1.3274 0,0.14667 -0.567,0.73882 -0.62131,0.64886 -0.0165,-0.0274 -0.13575,-0.25713 -0.26491,-0.51051 -0.64361,-1.26264 -2.10619,-1.47861 -5.39081,-0.79604 -3.28113,0.68183 -4.9668,1.60145 -5.42952,2.96209 -0.18132,0.53318 -0.17293,0.79514 0.0495,1.54404 0.57338,1.93079 2.36059,2.25579 5.81844,1.05807 0.76854,-0.2662 1.45064,-0.49684 1.51578,-0.51255 0.11598,-0.0279 0.64281,-0.26462 2.4274,-1.09056 1.26979,-0.58766 1.30329,-0.62968 1.30329,-1.63464 0,-0.78548 0.0259,-0.87251 0.3518,-1.18481 0.31478,-0.30156 0.36026,-0.31499 0.43218,-0.1276 0.11106,0.28942 0.114,0.75434 0.008,1.27193 l -0.0895,0.43707 0.33862,-0.16892 c 0.74409,-0.37121 2.15515,-0.56159 3.5482,-0.47872 0.73281,0.0436 1.33238,0.0571 1.33238,0.0299 0,-0.0271 -0.12678,-0.336 -0.28173,-0.68639 -0.56741,-1.28297 -1.02104,-3.43735 -1.02104,-4.84895 0,-0.89235 0.16732,-0.69575 0.33488,0.39347 0.35134,2.28384 1.24597,4.53927 1.94363,4.90005 0.35298,0.18253 2.45887,0.39918 2.45887,0.25295 0,-0.0338 -0.15891,-0.69401 -0.35314,-1.46725 -0.37001,-1.47307 -0.83483,-4.30935 -0.82237,-5.01813 0.005,-0.32806 0.0885,-0.16749 0.39639,0.76982 0.214,0.65139 0.74333,2.07478 1.17628,3.16308 0.43295,1.0883 0.78719,2.0343 0.78719,2.10222 0,0.30414 0.48433,0.59722 0.98695,0.59722 0.28227,0 0.54043,-0.0273 0.57371,-0.0605 0.16372,-0.16375 -0.37582,-3.03887 -0.91102,-4.85456 -0.42836,-1.45322 -1.70554,-5.00379 -2.08491,-5.79603 -0.19556,-0.4084 0.46246,0.39534 1.04069,1.27113 0.713,1.07995 1.18682,2.14922 2.12342,4.792 0.93749,2.64526 1.70408,4.33845 2.04744,4.52222 0.44863,0.24009 3.3098,-0.20106 8.68334,-1.33888 0.76229,-0.16141 1.66832,-0.32781 2.01339,-0.36978 l 0.6274,-0.0763 0.68991,0.7013 0.68989,0.7013 -1.57816,0.0841 c -0.86798,0.0462 -2.8306,0.21469 -4.36137,0.37439 -6.56605,0.68494 -7.4845,0.72809 -12.49486,0.58691 -3.44122,-0.097 -5.07594,-0.007 -6.69155,0.36973 -1.09543,0.25519 -1.703,0.49166 -3.87772,1.5092 -1.05794,0.49501 -1.95891,0.90001 -2.00214,0.90001 -0.0432,0 0.0218,-0.11992 0.1445,-0.26648 0.1227,-0.14656 0.0375,-0.0955 -0.18934,0.1134 -0.45683,0.42076 -1.01142,0.64681 -2.42495,0.98838 -1.17669,0.28434 -2.39542,0.28507 -3.28091,0.002 z m 49.47043,-3.21569 c -0.72162,-0.21902 -3.8698,-0.8139 -5.52158,-1.04336 -1.99689,-0.2774 -5.8721,-0.53979 -6.56643,-0.44463 -0.46519,0.0638 -0.51011,0.0395 -1.17868,-0.6361 -0.38229,-0.38631 -0.65397,-0.74348 -0.60374,-0.7937 0.19354,-0.19354 5.17715,-0.18137 7.11965,0.0173 2.89069,0.29578 6.18359,0.78714 8.09516,1.20797 l 0.87063,0.19167 -0.80825,0.81448 c -0.44453,0.44796 -0.86296,0.80991 -0.92985,0.80431 -0.0669,-0.005 -0.28149,-0.0588 -0.47691,-0.11803 z m -43.90965,-22.91512 c -0.30942,-0.16107 -0.56257,-0.31937 -0.56257,-0.35179 0,-0.0325 0.26647,0.0761 0.59217,0.24113 0.3257,0.16504 0.59218,0.32583 0.59218,0.3573 0,0.0784 0.0106,0.0826 -0.62178,-0.24664 z m 113.49002,-7.12036 c -2.63608,-0.19728 -7.11603,-1.01413 -9.88931,-1.80315 -5.81904,-1.65558 -10.55481,-3.70499 -15.81102,-6.84226 -2.77043,-1.65358 -2.59427,-1.50705 -2.25107,-1.87236 0.15344,-0.16332 0.32878,-0.29694 0.38966,-0.29694 0.0609,0 0.70446,0.36903 1.43018,0.82007 4.42368,2.74937 8.79245,4.73034 14.3473,6.50563 3.07331,0.98223 4.60283,1.40367 8.82339,2.4312 1.72618,0.42025 3.45829,0.84318 3.84912,0.93983 l 0.71061,0.17574 -0.53296,-0.009 c -0.29312,-0.004 -0.77279,-0.0269 -1.0659,-0.0488 z m -73.42108,-4.94368 -0.63488,-0.64287 0.99422,-0.6411 c 0.54684,-0.35261 2.03351,-1.29818 3.30372,-2.10129 4.34013,-2.7441 12.61018,-8.01763 15.04119,-9.59129 1.33536,-0.86441 2.74769,-1.76922 3.13853,-2.0107 0.39083,-0.24149 1.69658,-1.06733 2.90165,-1.8352 1.20507,-0.76788 2.64405,-1.68246 3.19773,-2.03242 3.83313,-2.42277 11.37567,-7.20912 13.2178,-8.38775 2.1694,-1.38805 2.20662,-1.41873 1.92892,-1.5904 -0.15574,-0.0963 -0.60294,-0.50142 -0.99378,-0.90032 -0.65144,-0.66487 -1.41357,-1.93774 -1.82735,-3.05197 -0.0666,-0.17913 -0.17887,-0.3257 -0.24965,-0.3257 -0.0708,0 -0.99144,0.55028 -2.04594,1.22285 -1.05447,0.67255 -2.50347,1.58773 -3.22001,2.03371 -0.71652,0.44599 -3.11483,1.95524 -5.32955,3.35391 -2.21473,1.39866 -5.25258,3.31312 -6.75078,4.25435 -1.4982,0.94124 -2.8684,1.81296 -3.0449,1.93717 -0.1765,0.12421 -0.35024,0.22583 -0.3861,0.22583 -0.0359,0 -0.53101,0.30829 -1.10032,0.6851 -0.56931,0.37681 -1.48812,0.96446 -2.04181,1.30591 -0.55367,0.34145 -1.73892,1.08574 -2.63387,1.65399 -2.31996,1.47304 -6.13734,3.88618 -9.97941,6.30846 -1.8239,1.14988 -4.42395,2.79167 -5.77789,3.64843 -1.35394,0.85676 -2.50098,1.55774 -2.54896,1.55774 -0.048,0 -0.5242,-0.43968 -1.05825,-0.97708 l -0.97101,-0.97709 0.16952,-0.53296 c 0.1947,-0.61206 1.0921,-3.24164 1.62745,-4.76875 0.20014,-0.57092 0.38389,-1.01806 0.40831,-0.99363 0.0244,0.0244 -0.25499,1.05115 -0.62092,2.28161 -0.56936,1.91452 -0.67474,2.42086 -0.73056,3.51038 -0.0456,0.88932 -0.0258,1.27318 0.0655,1.27318 0.13458,0 1.64102,-0.92823 5.76527,-3.55238 1.30278,-0.82893 3.62115,-2.29656 5.15191,-3.26141 1.53077,-0.96483 3.20958,-2.02833 3.73069,-2.36333 1.14018,-0.73296 5.60338,-3.55652 6.92921,-4.38365 2.26468,-1.41283 3.86445,-2.42635 4.07371,-2.58088 0.2073,-0.15307 0.098,-0.23076 -1.36199,-0.96836 -1.8367,-0.92789 -3.26685,-1.70174 -7.44989,-4.03103 -1.66104,-0.92495 -3.33985,-1.85723 -3.73069,-2.07175 -1.85021,-1.01553 -4.48755,-2.33946 -6.75077,-3.38883 -2.18179,-1.01163 -2.58307,-1.15947 -3.26857,-1.20422 -0.78335,-0.0511 -1.27296,0.0908 -1.66486,0.48274 -0.29236,0.29235 -3.34096,2.52354 -4.60056,3.36702 -2.25378,1.50923 -5.03795,3.04679 -7.04687,3.89166 -1.36858,0.57557 -6.58261,3.17745 -8.01688,4.00055 -1.60836,0.92301 -3.44927,1.88261 -7.9718,4.15548 -4.83517,2.42999 -7.01624,3.8167 -8.61981,5.48038 l -0.44783,0.46461 0.56742,0.30883 c 1.02951,0.56032 3.45028,1.2023 3.9812,1.05579 0.16465,-0.0455 0.0167,0.25676 -0.15343,0.31348 -0.10608,0.0354 -0.12592,-6.8e-4 -0.0611,-0.11102 0.0529,-0.0899 -0.0193,-0.0621 -0.16053,0.0616 -0.22996,0.20169 -0.38874,0.21782 -1.53039,0.15539 -0.82696,-0.0452 -1.60618,-0.1697 -2.22129,-0.35487 -0.52111,-0.15687 -1.02276,-0.30674 -1.11476,-0.33304 -0.26753,-0.0765 -0.9103,2.19033 -1.62279,5.72304 l -0.32787,1.62565 -0.5706,0.56202 -0.57061,0.56203 -0.35909,-0.3591 -0.35909,-0.3591 0.65674,-2.58978 c 0.50873,-2.00608 0.77793,-2.83198 1.19436,-3.66432 1.77325,-3.54419 5.60341,-7.22675 9.58761,-9.21816 0.58625,-0.29302 2.18513,-1.02326 3.55304,-1.62276 2.30311,-1.00935 3.8767,-1.76805 6.27705,-3.02644 1.37197,-0.71927 2.93295,-1.599 3.13851,-1.76878 0.29987,-0.24769 5.26973,-3.14436 5.39481,-3.14436 0.0183,0 0.74391,-0.40604 1.61248,-0.90232 1.48356,-0.84766 2.51405,-1.51768 5.36914,-3.49092 1.4202,-0.98155 2.94295,-1.7883 3.89549,-2.06382 1.21345,-0.351 1.64343,-0.24812 4.86867,1.16489 1.59889,0.70049 1.51259,0.71441 2.68002,-0.43219 1.37079,-1.34634 2.44702,-1.89703 3.6884,-1.8873 0.99235,0.008 1.95488,0.29745 3.28781,0.98947 0.95097,0.49372 2.75188,1.80573 3.72688,2.71514 3.80906,3.55283 6.56402,6.22673 7.73023,7.50279 l 0.74257,0.81252 0.55533,-0.0833 c 1.00418,-0.15058 3.00163,-1.32924 5.95386,-3.51322 1.61852,-1.19734 8.85982,-6.07279 10.32544,-6.95196 1.50066,-0.90017 2.02175,-1.10437 2.80022,-1.09724 1.13482,0.0104 2.0433,0.4122 3.08217,1.36328 1.08484,0.99314 2.03111,2.99326 2.03111,4.2931 0,1.03904 -0.15946,1.20326 -2.7071,2.78776 -4.46927,2.77969 -14.81609,9.55337 -14.81955,9.70183 -0.003,0.11363 2.45366,1.83395 4.97258,3.48262 1.95824,1.28171 11.67757,7.72035 11.83739,7.84177 0.0292,0.0222 -0.10402,0.19414 -0.29609,0.38209 l -0.34923,0.3417 -3.73816,-2.50693 c -2.05598,-1.37882 -4.12324,-2.77342 -4.5939,-3.09912 -2.22755,-1.54143 -4.51163,-3.17905 -5.84075,-4.18764 -1.81754,-1.37921 -2.46364,-1.72243 -3.0855,-1.63902 -0.80404,0.10784 -3.05799,1.55066 -8.44201,5.40399 -2.19495,1.57091 -2.8458,2.00261 -6.70823,4.44945 -4.2977,2.7226 -6.99716,4.43976 -10.37984,6.60274 -0.7895,0.50482 -1.47984,0.91787 -1.53408,0.91787 -0.0543,0 -0.38431,-0.2893 -0.73351,-0.64287 z m 20.88561,-22.99751 c 0.10303,-0.0395 0.18734,-0.11772 0.18734,-0.17374 0,-0.19415 -1.48606,-1.74402 -2.63388,-2.74694 -0.6344,-0.55432 -1.99343,-1.63782 -3.02008,-2.40778 -1.02665,-0.76997 -2.53284,-1.93692 -3.34707,-2.59322 -1.80497,-1.45487 -2.30912,-1.80512 -3.37539,-2.34495 -1.25905,-0.63742 -2.07691,-0.83601 -3.14233,-0.763 -1.02825,0.0705 -1.56657,0.29983 -2.36323,1.00681 l -0.53099,0.4712 1.12332,0.56321 c 1.71058,0.85765 3.88502,2.05042 7.34114,4.02688 3.41049,1.95038 3.74888,2.13901 6.21782,3.46638 1.43831,0.77327 3.02606,1.52801 3.27687,1.55768 0.0435,0.005 0.16345,-0.023 0.26648,-0.0625 z m 24.33086,-6.51833 c 0.24386,-0.28077 0.26895,-0.39649 0.19953,-0.91979 -0.17418,-1.31304 -1.36526,-2.79189 -2.91305,-3.61685 -1.15955,-0.61804 -1.8776,-0.44734 -1.7185,0.40852 0.16338,0.87888 1.61119,3.29482 2.39048,3.98897 0.73035,0.65054 1.54895,0.70634 2.04154,0.13915 z m -2.21849,-1.99409 c -0.6515,-0.6094 -0.9791,-1.35439 -0.72841,-1.65645 0.0828,-0.0998 0.21852,-0.18149 0.30151,-0.18149 0.3416,0 1.4782,1.68167 1.4782,2.1871 0,0.34314 -0.48251,0.18288 -1.0513,-0.34916 z m -89.06971,29.42949 c 0.13495,-0.48702 0.26998,-0.91009 0.30005,-0.94015 0.0301,-0.0301 0.19868,0.0894 0.37471,0.26539 l 0.32006,0.32005 -0.6201,0.62011 -0.6201,0.6201 0.24538,-0.8855 z m 1.4189,-0.0538 -0.29062,-0.30965 0.50482,-0.49963 0.50481,-0.49962 -0.0843,0.35531 c -0.0464,0.19541 -0.14278,0.55959 -0.21419,0.80926 l -0.12984,0.45398 -0.29063,-0.30965 z m 27.95447,-10.91198 c 0.005,-0.13797 0.0337,-0.16603 0.0716,-0.0716 0.0342,0.0855 0.03,0.18764 -0.009,0.22699 -0.0394,0.0394 -0.0674,-0.0306 -0.0622,-0.15544 z"
       id="path4217"
       inkscape:connector-curvature="0"
       inkscape:transform-center-x="-109.41084"
       inkscape:transform-center-y="166.93651" />
    <text
       xml:space="preserve"
       style="font-style:normal;font-weight:normal;font-size:40px;line-height:125%;font-family:sans-serif;letter-spacing:0px;word-spacing:0px;fill:#000000;fill-opacity:1;stroke:none;stroke-width:1px;stroke-linecap:butt;stroke-linejoin:miter;stroke-opacity:1"
       x="33.18351"
       y="178.27722"
       id="text4219"
       sodipodi:linespacing="125%"><tspan
         sodipodi:role="line"
         id="tspan4221"
         x="33.18351"
         y="178.27722"
         style="font-style:italic;font-variant:normal;font-weight:normal;font-stretch:normal;font-family:'Brush Script MT';-inkscape-font-specification:'Brush Script MT Italic'">Redacta la teva resposta</tspan></text>
    <path
       style="fill:none;fill-rule:evenodd;stroke:#000000;stroke-width:1px;stroke-linecap:butt;stroke-linejoin:miter;stroke-opacity:1"
       d="m 351,176.8622 5,-4.5"
       id="path4157"
       inkscape:connector-curvature="0" />
    <path
       style="fill:none;fill-rule:evenodd;stroke:#000000;stroke-width:0.5;stroke-linecap:butt;stroke-linejoin:miter;stroke-miterlimit:7.4000001;stroke-dasharray:none;stroke-opacity:1"
       d="m 351.5,175.3622 c 0.83333,-0.16666 1.77127,-0.0628 2.5,-0.5 0.28583,-0.17149 -0.2357,-0.76429 0,-1 0.16667,-0.16666 0.33333,0.66667 0.5,0.5 0.2357,-0.2357 -0.29814,-0.85092 0,-1 0.33333,-0.16666 0.62732,0.5 1,0.5 0.2357,0 -0.5,-0.26429 -0.5,-0.5 0,-0.66666 1,-0.66666 1,0 0,0.16667 -0.57454,0.14908 -0.5,0 0.21082,-0.42163 0.66667,-0.66666 1,-1 0.16667,-0.16666 -0.5,0.73571 -0.5,0.5 0,-0.37267 0.16667,-0.83333 0.5,-1 0.21082,-0.1054 0.5,0.2643 0.5,0.5 0,0.33334 -1.16667,-0.16666 -0.5,-0.5 0.29814,-0.14907 0.7643,0.23571 1,0 0.16667,-0.16666 -0.2643,-0.5 -0.5,-0.5 -0.16667,0 -0.14907,0.42547 0,0.5 0.29814,0.14908 0.66667,0 1,0 0.16667,0 -0.66667,0 -0.5,0 4.83333,0 -1.5,0 2,0 0.16667,0 -0.66667,0 -0.5,0 3.27778,0 -1.77778,0 1.5,0 0.16667,0 -0.5,0.16667 -0.5,0 0,-0.16666 0.33333,0 0.5,0 0.16667,0 0.34189,-0.0527 0.5,0 0.35355,0.11786 0.73648,0.23648 1,0.5 0.11785,0.11786 -0.16667,0.5 0,0.5 0.2357,0 0.2643,-0.5 0.5,-0.5 0.2357,0 0.5,0.2643 0.5,0.5 0,0.23571 -0.2643,0.5 -0.5,0.5 -0.16667,0 0.16667,-2.16666 1,-0.5 0.16667,0.33334 -0.23648,0.73648 -0.5,1 -0.11785,0.11786 -0.16667,-0.5 0,-0.5 0.16667,0 -0.14907,0.42547 0,0.5 0.29814,0.14908 0.66667,0 1,0 0.16667,0 -0.38215,-0.11785 -0.5,0 -0.11785,0.11786 0,0.33334 0,0.5 0,0.16667 -0.0745,0.35093 0,0.5 1.65829,1.6583 -0.2357,-0.4714 0.5,1 0.10541,0.21082 0.5,0.2643 0.5,0.5 0,0.16667 -0.38215,-0.11785 -0.5,0 -0.11785,0.11786 0,0.33334 0,0.5 0,0.16667 0,0.33334 0,0.5 0,0.16667 0,0.33334 0,0.5 0,0.16667 0.16667,0.5 0,0.5 -0.16667,0 0,-0.66666 0,-0.5 0,0.33334 0,0.66667 0,1 0,0.5 0.15811,1.02566 0,1.5 -0.0745,0.22361 -0.2643,0.5 -0.5,0.5 -0.2357,0 -0.5,-0.7357 -0.5,-0.5 0,0.37268 0.76352,0.73648 0.5,1 -2,2 -0.5,-3.5 -0.5,0.5 0,0.23571 -0.28918,-0.39459 -0.5,-0.5 -0.14907,-0.0745 -0.5,-0.16666 -0.5,0 0,0.37268 0.76352,0.73648 0.5,1 -0.26352,0.26353 -0.62732,-0.5 -1,-0.5 -0.2357,0 0.66667,0.33334 0.5,0.5 -0.2357,0.23571 -0.66667,0 -1,0 -0.16667,0 0.57454,-0.14907 0.5,0 -0.21082,0.42164 -0.57836,0.78919 -1,1 -0.14907,0.0745 0.14907,-0.42546 0,-0.5 -0.29814,-0.14907 -0.85093,-0.29814 -1,0 -0.16667,0.33334 0.76352,0.73648 0.5,1 -0.26352,0.26353 -0.73648,-0.23647 -1,-0.5 -0.11785,-0.11785 0.61785,-0.11785 0.5,0 -0.42492,0.42492 -0.96252,0.73126 -1.5,1 -0.21082,0.10541 0.66667,-0.66666 0.5,-0.5 -0.33333,0.33334 -0.66667,0.66667 -1,1 -0.16667,0.16667 0.66667,-0.66666 0.5,-0.5 -0.33333,0.33334 -0.55279,0.85093 -1,1 -0.22361,0.0745 -0.28918,-0.6054 -0.5,-0.5 -0.33333,0.16667 -0.18991,0.79328 -0.5,1 -0.27735,0.1849 -0.67662,-0.0808 -1,0 -3.36787,0.84197 -0.3804,0.38041 -0.5,0.5 -0.26352,0.26353 -0.64645,0.38215 -1,0.5 -0.15811,0.0527 -0.38215,-0.11785 -0.5,0 -0.11785,0.11786 0.0745,0.35093 0,0.5 -0.10541,0.21082 -0.2643,0.5 -0.5,0.5 -0.2357,0 -0.66667,-0.33333 -0.5,-0.5 0.16667,-0.16666 0.66667,0.33334 0.5,0.5 -0.2357,0.23571 -0.66667,0 -1,0 -0.16667,0 0.5,-0.16666 0.5,0 0,0.33334 -0.85093,-0.29814 -1,0 -0.14907,0.29815 0.29814,0.85093 0,1 -0.33333,0.16667 -0.73648,-0.23647 -1,-0.5 -0.11785,-0.11785 0.57454,-0.14907 0.5,0 -0.21082,0.42164 -0.66667,0.66667 -1,1 -0.13807,0.13808 1.9714,-1.7357 -0.5,-0.5 -0.14907,0.0745 0.11785,0.38215 0,0.5 -0.2357,0.23571 -0.68377,-0.1054 -1,0 -0.33333,0.16667 -0.66667,0.33334 -1,0.5 0.16667,0 0.61785,-0.11785 0.5,0 -0.26352,0.26353 -0.62732,0.5 -1,0.5 -0.2357,0 0.66667,-0.33333 0.5,-0.5 -0.2357,-0.2357 -0.66667,0 -1,0 -0.16667,0 -0.5,-0.16666 -0.5,0 0,0.37268 0.76352,0.73648 0.5,1 -0.26352,0.26353 -0.73648,-0.23647 -1,-0.5 -0.11785,-0.11785 0.57454,-0.14907 0.5,0 -0.21082,0.42164 -0.66667,0.66667 -1,1 -0.16667,0.16667 0.66667,-0.33333 0.5,-0.5 -0.2357,-0.2357 -0.66667,0 -1,0 -0.16667,0 0.57454,-0.14907 0.5,0 -0.21082,0.42164 -0.66667,0.66667 -1,1 -0.16667,0.16667 0.66667,-0.33333 0.5,-0.5 -0.0567,-0.0567 -1.4433,-0.0567 -1.5,0 -0.16667,0.16667 0.5,0.2643 0.5,0.5 0,0.23571 -0.2643,0.5 -0.5,0.5 -0.2357,0 -0.28918,-0.6054 -0.5,-0.5 -0.33333,0.16667 -0.5,0.62733 -0.5,1 0,0.62587 1.17259,-1.37944 0,-0.5 -0.56569,0.42427 -0.82918,1.2764 -1.5,1.5 -0.5,0.16667 -0.97295,-0.5 -1.5,-0.5 -1.88562,0 0.39645,0.70119 -0.5,1 -0.47434,0.15812 -1,0 -1.5,0 -0.16667,0 -0.38215,-0.11785 -0.5,0 -0.85227,0.85227 2.85321,1 -1.5,1 -0.37268,0 -0.64645,-0.61785 -1,-0.5 -0.35355,0.11786 -0.23648,0.73648 -0.5,1 -0.11785,0.11786 0.14907,-0.42546 0,-0.5 -0.29814,-0.14907 -0.68377,-0.1054 -1,0 -0.44721,0.14908 -0.5286,1 -1,1 -0.2357,0 -0.27639,-0.42546 -0.5,-0.5 -1.86859,-0.62286 -0.29648,0.39824 -1.5,1 -0.21082,0.10541 -0.2643,-0.5 -0.5,-0.5 -0.37268,0 -0.63845,0.40962 -1,0.5 -1.01835,0.25459 -1.60047,-0.39952 -2.5,0.5 -0.11785,0.11786 0.61785,-0.11785 0.5,0 -0.26352,0.26353 -0.68991,0.29328 -1,0.5 -0.19612,0.13075 -0.2643,0.5 -0.5,0.5 -0.16667,0 0.11785,-0.38214 0,-0.5 -0.11785,-0.11785 -0.33333,0 -0.5,0 -0.16667,0 -0.5,-0.16666 -0.5,0 0,4 1.5,-1.5 -0.5,0.5 -0.26352,0.26353 0.76352,0.73648 0.5,1 -0.26352,0.26353 -0.73648,-0.23647 -1,-0.5 -0.11785,-0.11785 0.57454,-0.14907 0.5,0 -0.21082,0.42164 -0.55279,0.85093 -1,1 -1.7637,-0.40703 0.0745,-0.64907 0,-0.5 -0.33333,0.33334 -0.66667,0.66667 -1,1 0,-0.16666 0.11785,-0.61785 0,-0.5 -0.26352,0.26353 -0.23648,0.73648 -0.5,1 -0.83333,0.83334 -0.5,-1.83333 -0.5,1 0,0.16667 0.16667,-0.5 0,-0.5 -0.2357,0 -0.28918,0.3946 -0.5,0.5 -0.14907,0.0745 -0.42546,-0.14907 -0.5,0 -0.14907,0.29815 0,0.66667 0,1 0,0.16667 0,-0.66666 0,-0.5 0,0.33334 0,0.66667 0,1 0,0.16667 -0.16667,-0.5 0,-0.5 0.16667,0 0,0.33334 0,0.5 0,3.27778 0,-1.77777 0,1.5 0,0.16667 -0.16667,-0.5 0,-0.5 0.37268,0 0.87268,1 0.5,1 -0.16667,0 -0.14907,-0.42546 0,-0.5 0.29814,-0.14907 0.70186,-0.14907 1,0 0.29814,0.14908 -0.33333,1 0,1 0.19526,0 0.56311,-0.93688 1,-0.5 0.11785,0.11786 -0.0745,0.35093 0,0.5 0.38138,0.76277 0.8934,0.60661 1.5,0 0.11785,-0.11785 -0.61785,-0.11785 -0.5,0 0.26352,0.26353 0.83333,0.16667 1,0.5 0.10541,0.21082 -0.7357,0.5 -0.5,0.5 0.52705,0 1.0286,-0.26429 1.5,-0.5 0.14907,-0.0745 -0.5,-0.16666 -0.5,0 0,0.37268 0.23648,0.73648 0.5,1 0.11785,0.11786 -0.11785,-0.38214 0,-0.5 0.11785,-0.11785 0.35093,-0.0745 0.5,0 0.21082,0.10541 0.28918,0.3946 0.5,0.5 0.4,0.2 1.1,-0.2 1.5,0 0.21082,0.10541 0.28918,0.3946 0.5,0.5 0.21354,0.10678 2.30234,0 2.5,0 0.5,0 1,0 1.5,0 0.16667,0 -0.5,0.16667 -0.5,0 0,-0.16666 0.33333,0 0.5,0 0.16667,0 0.33333,0 0.5,0 0.16667,0 0.33333,0 0.5,0 0.16667,0 0.38215,-0.11785 0.5,0 0.11785,0.11786 -0.11785,0.38215 0,0.5 0.13681,0.13682 1.72876,-0.13562 2,0 0.21082,0.10541 0.2643,0.5 0.5,0.5 0.16667,0 -0.11785,-0.38214 0,-0.5 0.11785,-0.11785 0.33333,0 0.5,0 0.16667,0 0.33333,0 0.5,0 0.16667,0 0.35093,-0.0745 0.5,0 0.21082,0.10541 0.28918,0.3946 0.5,0.5 0.14907,0.0745 0.33333,0 0.5,0 0.16667,0 0.38215,0.11786 0.5,0 0.11785,-0.11785 -0.11785,-0.38214 0,-0.5 0.10222,-0.10221 1.30175,0.0991 1.5,0 1.65829,-0.82914 0,-0.35059 0,-0.5 0,-0.33333 0.70186,0.14908 1,0 0.21082,-0.1054 0.28918,-0.39459 0.5,-0.5 0.19825,-0.0991 1.39778,0.10222 1.5,0 0.11785,-0.11785 -0.11785,-0.38214 0,-0.5 0.7357,0 0.38215,0.11786 1,-0.5"
       id="path4159"
       inkscape:connector-curvature="0" />
  </g>
</svg>
